# xmcd
#
# Track frame offsets:
#	150
#	11700
#	27452
#	41777
#	53180
#	66082
#	78310
#	91812
#	111770
#	126170
#	139450
#
# Disc length: 2019 seconds
#
# Revision: 0
# Processed by: cddbd v1.4PL0 Copyright (c) Steve Scherf et al.
# Submitted via: dBpowerAMP V4.0
#
DISCID=9707e10b
DTITLE=Sandra Dee - Dreamin'
DYEAR=1900
DGENRE=Country
TTITLE0=Sweet Dreams
TTITLE1=Harper Valley PTA
TTITLE2=The Rose
TTITLE3=Help Me Make It Through the Night
TTITLE4=I Just Fall In Love Again
TTITLE5=Jump Back Into My Dreams
TTITLE6=Apartment #9
TTITLE7=Give Me One Reason
TTITLE8=Out of Your Shoes
TTITLE9=Rose Garden
TTITLE10=Mercedes Benz
EXTD=
EXTT0=
EXTT1=
EXTT2=
EXTT3=
EXTT4=
EXTT5=
EXTT6=
EXTT7=
EXTT8=
EXTT9=
EXTT10=
PLAYORDER=
